<svg xmlns="http://www.w3.org/2000/svg" xmlns:xlink="http://www.w3.org/1999/xlink" width="62" height="37" version="1.1" viewBox="0 0 62 37"><title>Untitled 7</title><desc>Created with Sketch.</desc><defs><linearGradient id="linearGradient-1" x1="0%" x2="100%" y1="0%" y2="100%"><stop offset="0%" stop-color="#43E695"/><stop offset="100%" stop-color="#3BB2B8"/></linearGradient></defs><g id="Page-1" fill="none" fill-rule="evenodd" stroke="none" stroke-width="1"><g id="logo" transform="translate(-1.000000, -1.000000)"><g id="Logo"><rect id="Rectangle" width="28" height="28" x="9" y="10" fill="url(#linearGradient-1)" fill-rule="nonzero" rx="4"/><path id="url" fill="#FFF" fill-rule="nonzero" d="M20.165,29.68 L18.665,29.68 L18.665,28.915 C18.14,29.485 17.405,29.77 16.64,29.77 C15.86,29.77 15.215,29.515 14.765,29.08 C14.18,28.51 14,27.79 14,26.935 L14,22.075 L15.53,22.075 L15.53,26.71 C15.53,27.895 16.205,28.405 17.06,28.405 C17.915,28.405 18.635,27.88 18.635,26.71 L18.635,22.075 L20.165,22.075 L20.165,29.68 Z M27.935,22.705 L26.78,23.86 C26.435,23.515 26.165,23.35 25.64,23.35 C24.815,23.35 24.125,24.01 24.125,25.06 L24.125,29.68 L22.595,29.68 L22.595,22.075 L24.095,22.075 L24.095,22.9 C24.485,22.36 25.265,21.985 26.12,21.985 C26.855,21.985 27.41,22.18 27.935,22.705 Z M32.165,29.68 L31.22,29.68 C29.765,29.68 29.135,28.705 29.135,27.58 L29.135,19 L30.665,19 L30.665,27.49 C30.665,28.075 30.875,28.375 31.49,28.375 L32.165,28.375 L32.165,29.68 Z"/><path id="List" fill="#1F2C46" fill-rule="nonzero" d="M46.7488614,29.9084605 L40,29.9084605 L40,19.0457698 L41.6161353,19.0457698 L41.6161353,28.4285714 L46.7488614,28.4285714 L46.7488614,29.9084605 Z M49.9362394,29.9084605 L48.4098894,29.9084605 L48.4098894,22.1733703 L49.9362394,22.1733703 L49.9362394,29.9084605 Z M49.9811321,20.6477115 L48.3649967,20.6477115 L48.3649967,19 L49.9811321,19 L49.9811321,20.6477115 Z M57.9720234,27.5436893 C57.9720234,29.1608877 56.625244,30 54.8145738,30 C53.5725439,30 52.5250488,29.7864078 51.6271958,28.8862691 L52.6297983,27.8640777 C53.2433312,28.5048544 54.066363,28.6726768 54.8145738,28.6726768 C55.7573195,28.6726768 56.4756018,28.3370319 56.4756018,27.6047157 C56.4756018,27.0707351 56.1912817,26.7656033 55.4580351,26.6893204 L54.2459336,26.5825243 C52.8093689,26.445215 52.0013012,25.8044383 52.0013012,24.4466019 C52.0013012,22.9209431 53.2732596,22.0818308 54.8594665,22.0818308 C56.0117111,22.0818308 56.9694209,22.3259362 57.6727391,22.9514563 L56.7150293,23.9431345 C56.2361744,23.5312067 55.5627846,23.3786408 54.8445023,23.3786408 C53.9167209,23.3786408 53.4677944,23.7753121 53.4677944,24.370319 C53.4677944,24.9042996 53.7670787,25.1789182 54.5152895,25.2552011 L55.5777489,25.3467406 C57.1489915,25.4840499 57.9720234,26.185853 57.9720234,27.5436893 Z M63,29.9084605 L62.0871828,29.9084605 C60.6655823,29.9084605 60.0071568,28.8710125 60.0071568,27.7572816 L60.0071568,23.3633842 L59.1392323,23.3633842 L59.1392323,22.1733703 L60.0071568,22.1733703 L60.0071568,19.961165 L61.5335068,19.961165 L61.5335068,22.1733703 L63,22.1733703 L63,23.3633842 L61.5335068,23.3633842 L61.5335068,27.6809986 C61.5335068,28.2454924 61.8028627,28.5811373 62.3715029,28.5811373 L63,28.5811373 L63,29.9084605 Z"/><g id="Beta" transform="translate(16.608827, 11.079709) rotate(-17.000000) translate(-16.608827, -11.079709) translate(1.608827, 4.079709)"><rect id="Rectangle-2" width="28.939" height="12.34" x="0" y=".028" fill="#F5A623" rx="4"/><text fill="#FFF" font-family="ArialMT, Arial" font-size="10" font-weight="normal"><tspan x="4.409" y="9.044">Beta</tspan></text></g></g></g></g></svg>